<svg width="15" height="15" viewBox="0 0 15 15" fill="none" xmlns="http://www.w3.org/2000/svg">
<path d="M6.75 0L2.625 6.75H10.875L6.75 0ZM6.75 2.88L8.1975 5.25H5.295L6.75 2.88ZM10.875 8.25C9.0075 8.25 7.5 9.7575 7.5 11.625C7.5 13.4925 9.0075 15 10.875 15C12.7425 15 14.25 13.4925 14.25 11.625C14.25 9.7575 12.7425 8.25 10.875 8.25ZM10.875 13.5C9.84 13.5 9 12.66 9 11.625C9 10.59 9.84 9.75 10.875 9.75C11.91 9.75 12.75 10.59 12.75 11.625C12.75 12.66 11.91 13.5 10.875 13.5ZM0 14.625H6V8.625H0V14.625ZM1.5 10.125H4.5V13.125H1.5V10.125Z" fill="#D6685A"/>
<path d="M6.75 2.88L8.1975 5.25H5.295L6.75 2.88Z" fill="#D6685A"/>
<path d="M1.5 10.125H4.5V13.125H1.5V10.125Z" fill="#D6685A"/>
<path d="M10.875 13.5C9.84 13.5 9 12.66 9 11.625C9 10.59 9.84 9.75 10.875 9.75C11.91 9.75 12.75 10.59 12.75 11.625C12.75 12.66 11.91 13.5 10.875 13.5Z" fill="#D6685A"/>
</svg>
