<svg width="329" height="27" viewBox="0 0 329 27" fill="none" xmlns="http://www.w3.org/2000/svg">
<path d="M24.524 21.356C22.076 23.66 19.172 24.812 15.812 24.812C13.94 24.812 12.284 24.488 10.844 23.84C9.404 23.192 8.204 22.328 7.244 21.248C6.284 20.168 5.552 18.92 5.048 17.504C4.568 16.088 4.328 14.612 4.328 13.076C4.328 11.444 4.58 9.956 5.084 8.612C5.612 7.244 6.344 6.068 7.28 5.084C8.216 4.1 9.32 3.332 10.592 2.78C11.888 2.228 13.292 1.952 14.804 1.952C15.836 1.952 16.772 2.072 17.612 2.312C18.476 2.552 19.232 2.864 19.88 3.248C20.552 3.632 21.092 4.076 21.5 4.58C21.932 5.06 22.232 5.552 22.4 6.056H25.064C24.704 5.24 24.236 4.484 23.66 3.788C23.108 3.092 22.412 2.492 21.572 1.988C20.732 1.484 19.748 1.088 18.62 0.799998C17.492 0.511999 16.208 0.368 14.768 0.368C12.68 0.368 10.772 0.667999 9.044 1.268C7.34 1.868 5.876 2.732 4.652 3.86C3.428 4.964 2.48 6.308 1.808 7.892C1.136 9.452 0.8 11.204 0.8 13.148C0.8 14.828 1.064 16.472 1.592 18.08C2.144 19.664 2.984 21.08 4.112 22.328C5.24 23.552 6.68 24.548 8.432 25.316C10.184 26.06 12.272 26.432 14.696 26.432C16.232 26.432 17.6 26.288 18.8 26C20.024 25.712 21.08 25.364 21.968 24.956C22.88 24.524 23.636 24.068 24.236 23.588C24.836 23.108 25.292 22.688 25.604 22.328L24.524 21.356ZM46.7644 17.036C46.7644 18.284 46.5484 19.484 46.1164 20.636C45.6844 21.764 45.0604 22.76 44.2444 23.624C43.4524 24.488 42.4804 25.172 41.3284 25.676C40.2004 26.18 38.9284 26.432 37.5124 26.432C36.0724 26.432 34.7644 26.18 33.5884 25.676C32.4364 25.148 31.4524 24.452 30.6364 23.588C29.8444 22.724 29.2204 21.728 28.7644 20.6C28.3324 19.448 28.1164 18.26 28.1164 17.036C28.1164 15.788 28.3324 14.6 28.7644 13.472C29.2204 12.32 29.8444 11.312 30.6364 10.448C31.4524 9.584 32.4364 8.9 33.5884 8.396C34.7644 7.868 36.0724 7.604 37.5124 7.604C38.9284 7.604 40.2004 7.868 41.3284 8.396C42.4804 8.9 43.4524 9.584 44.2444 10.448C45.0604 11.312 45.6844 12.32 46.1164 13.472C46.5484 14.6 46.7644 15.788 46.7644 17.036ZM43.3444 17.036C43.3444 15.356 43.1644 14 42.8044 12.968C42.4444 11.912 41.9764 11.096 41.4004 10.52C40.8244 9.944 40.1884 9.56 39.4924 9.368C38.7964 9.152 38.1244 9.044 37.4764 9.044C36.8284 9.044 36.1564 9.152 35.4604 9.368C34.7644 9.56 34.1164 9.944 33.5164 10.52C32.9404 11.096 32.4604 11.912 32.0764 12.968C31.7164 14 31.5364 15.356 31.5364 17.036C31.5364 18.692 31.7164 20.048 32.0764 21.104C32.4604 22.136 32.9404 22.94 33.5164 23.516C34.1164 24.092 34.7644 24.488 35.4604 24.704C36.1564 24.896 36.8284 24.992 37.4764 24.992C38.1244 24.992 38.7964 24.896 39.4924 24.704C40.1884 24.488 40.8244 24.092 41.4004 23.516C41.9764 22.94 42.4444 22.136 42.8044 21.104C43.1644 20.048 43.3444 18.692 43.3444 17.036ZM60.4863 24.56C59.6223 24.56 58.7823 24.428 57.9663 24.164C57.1743 23.9 56.4663 23.48 55.8423 22.904C55.2183 22.304 54.7143 21.524 54.3303 20.564C53.9703 19.58 53.7903 18.38 53.7903 16.964C53.7903 15.5 53.9943 14.264 54.4023 13.256C54.8103 12.224 55.3143 11.408 55.9143 10.808C56.5383 10.184 57.2223 9.74 57.9663 9.476C58.7103 9.188 59.4183 9.044 60.0903 9.044C61.1943 9.044 62.1543 9.332 62.9703 9.908C63.7863 10.484 64.3263 11.192 64.5903 12.032H67.0743C66.8343 11.168 66.4503 10.46 65.9223 9.908C65.3943 9.332 64.7823 8.876 64.0863 8.54C63.4143 8.18 62.6823 7.94 61.8903 7.82C61.1223 7.676 60.3783 7.604 59.6583 7.604C58.1463 7.604 56.8143 7.856 55.6623 8.36C54.5103 8.84 53.5383 9.5 52.7463 10.34C51.9543 11.18 51.3543 12.164 50.9463 13.292C50.5623 14.42 50.3703 15.62 50.3703 16.892C50.3703 18.236 50.5863 19.496 51.0183 20.672C51.4503 21.824 52.0623 22.832 52.8543 23.696C53.6703 24.536 54.6423 25.208 55.7703 25.712C56.8983 26.192 58.1703 26.432 59.5863 26.432C61.1703 26.432 62.5503 26.168 63.7263 25.64C64.9263 25.112 65.9343 24.536 66.7503 23.912L65.7063 22.544C64.8663 23.24 64.0263 23.756 63.1863 24.092C62.3703 24.404 61.4703 24.56 60.4863 24.56ZM74.0923 0.799998H71.0323V26H74.0923V19.232L76.1803 17.108L83.4163 26H87.4483L78.4123 14.912L85.2883 8H82.9483L74.0923 16.928V0.799998ZM88.5331 9.44V8H91.6651V2.456H94.7251V8H99.0811V9.44H94.7251V21.392C94.7251 21.68 94.7371 22.016 94.7611 22.4C94.7851 22.76 94.8571 23.108 94.9771 23.444C95.0971 23.756 95.2771 24.02 95.5171 24.236C95.7811 24.452 96.1411 24.56 96.5971 24.56C97.1731 24.56 97.6531 24.344 98.0371 23.912C98.4211 23.48 98.7331 23.012 98.9731 22.508L100.665 24.236C99.4891 25.412 98.1571 26 96.6691 26C96.0451 26 95.4331 25.892 94.8331 25.676C94.2331 25.46 93.6931 25.136 93.2131 24.704C92.7571 24.248 92.3851 23.672 92.0971 22.976C91.8091 22.28 91.6651 21.464 91.6651 20.528V9.44H88.5331ZM110.457 7.604C112.209 7.604 113.565 7.856 114.525 8.36C115.485 8.84 116.181 9.476 116.613 10.268C117.069 11.06 117.333 11.972 117.405 13.004C117.477 14.036 117.513 15.092 117.513 16.172V26H114.597V24.236C113.901 24.908 113.013 25.448 111.933 25.856C110.853 26.24 109.773 26.432 108.693 26.432C107.661 26.432 106.749 26.252 105.957 25.892C105.165 25.532 104.505 25.064 103.977 24.488C103.449 23.912 103.053 23.264 102.789 22.544C102.525 21.824 102.393 21.092 102.393 20.348C102.393 19.58 102.537 18.812 102.825 18.044C103.113 17.276 103.545 16.592 104.121 15.992C104.697 15.368 105.405 14.864 106.245 14.48C107.085 14.096 108.045 13.904 109.125 13.904C110.205 13.904 111.225 14.12 112.185 14.552C113.169 14.96 113.973 15.548 114.597 16.316V14.768C114.597 12.8 114.297 11.336 113.697 10.376C113.121 9.416 112.053 8.936 110.493 8.936C109.821 8.936 109.233 9.02 108.729 9.188C108.225 9.356 107.769 9.596 107.361 9.908C106.977 10.196 106.617 10.568 106.281 11.024C105.945 11.456 105.609 11.948 105.273 12.5L103.401 10.628C103.737 10.268 104.085 9.908 104.445 9.548C104.829 9.188 105.285 8.864 105.813 8.576C106.365 8.288 107.013 8.06 107.757 7.892C108.501 7.7 109.401 7.604 110.457 7.604ZM114.597 18.872C114.477 18.584 114.297 18.248 114.057 17.864C113.841 17.48 113.553 17.108 113.193 16.748C112.833 16.388 112.401 16.088 111.897 15.848C111.393 15.584 110.793 15.452 110.097 15.452C109.401 15.452 108.765 15.596 108.189 15.884C107.613 16.148 107.121 16.508 106.713 16.964C106.329 17.396 106.029 17.912 105.813 18.512C105.597 19.112 105.489 19.736 105.489 20.384C105.489 21.152 105.621 21.824 105.885 22.4C106.173 22.952 106.533 23.432 106.965 23.84C107.397 24.224 107.877 24.512 108.405 24.704C108.933 24.896 109.437 24.992 109.917 24.992C110.373 24.992 110.829 24.908 111.285 24.74C111.765 24.572 112.209 24.344 112.617 24.056C113.049 23.744 113.433 23.384 113.769 22.976C114.105 22.568 114.381 22.124 114.597 21.644V18.872ZM124.427 8V26H127.487V8H124.427ZM123.995 2.312C123.995 2.84 124.187 3.296 124.571 3.68C124.955 4.064 125.411 4.256 125.939 4.256C126.467 4.256 126.923 4.064 127.307 3.68C127.691 3.296 127.883 2.84 127.883 2.312C127.883 1.784 127.691 1.328 127.307 0.943999C126.923 0.559999 126.467 0.368 125.939 0.368C125.411 0.368 124.955 0.559999 124.571 0.943999C124.187 1.328 123.995 1.784 123.995 2.312ZM138.129 0.799998H135.069V26H138.129V0.799998ZM181.572 14.768H174.444V16.244H178.476V22.76C177.396 23.456 176.292 23.972 175.164 24.308C174.036 24.644 172.752 24.812 171.312 24.812C169.416 24.812 167.76 24.524 166.344 23.948C164.928 23.372 163.752 22.58 162.816 21.572C161.88 20.54 161.172 19.328 160.692 17.936C160.236 16.52 160.008 14.972 160.008 13.292C160.008 11.636 160.224 10.112 160.656 8.72C161.112 7.328 161.784 6.128 162.672 5.12C163.56 4.112 164.64 3.332 165.912 2.78C167.208 2.228 168.708 1.952 170.412 1.952C171.54 1.952 172.596 2.072 173.58 2.312C174.564 2.552 175.44 2.864 176.208 3.248C176.976 3.632 177.6 4.076 178.08 4.58C178.584 5.06 178.908 5.552 179.052 6.056H181.644C181.428 5.528 181.056 4.94 180.528 4.292C180.024 3.62 179.328 2.996 178.44 2.42C177.552 1.844 176.448 1.364 175.128 0.979998C173.832 0.571999 172.296 0.368 170.52 0.368C168.48 0.368 166.596 0.655999 164.868 1.232C163.164 1.808 161.688 2.636 160.44 3.716C159.192 4.796 158.22 6.128 157.524 7.712C156.828 9.272 156.48 11.048 156.48 13.04C156.48 14.744 156.744 16.4 157.272 18.008C157.824 19.592 158.652 21.02 159.756 22.292C160.884 23.54 162.312 24.548 164.04 25.316C165.768 26.06 167.832 26.432 170.232 26.432C172.032 26.432 173.628 26.24 175.02 25.856C176.412 25.448 177.564 25.004 178.476 24.524V26H181.572V14.768ZM202.61 17.792V17.036C202.61 15.428 202.382 14.036 201.926 12.86C201.47 11.684 200.846 10.712 200.054 9.944C199.286 9.176 198.386 8.6 197.354 8.216C196.322 7.832 195.23 7.64 194.078 7.64C192.854 7.64 191.726 7.856 190.694 8.288C189.662 8.696 188.762 9.308 187.994 10.124C187.226 10.916 186.626 11.888 186.194 13.04C185.762 14.168 185.546 15.452 185.546 16.892C185.546 18.092 185.726 19.268 186.086 20.42C186.47 21.548 187.034 22.568 187.778 23.48C188.546 24.368 189.506 25.088 190.658 25.64C191.834 26.168 193.214 26.432 194.798 26.432C196.334 26.432 197.75 26.168 199.046 25.64C200.342 25.088 201.47 24.308 202.43 23.3L201.278 22.148C200.774 22.58 200.294 22.976 199.838 23.336C199.406 23.696 198.962 23.996 198.506 24.236C198.05 24.476 197.57 24.668 197.066 24.812C196.586 24.932 196.046 24.992 195.446 24.992C194.774 24.992 194.054 24.896 193.286 24.704C192.542 24.488 191.846 24.116 191.198 23.588C190.55 23.06 190.01 22.328 189.578 21.392C189.146 20.456 188.93 19.256 188.93 17.792H202.61ZM188.93 16.352C188.93 15.392 189.026 14.468 189.218 13.58C189.434 12.668 189.746 11.864 190.154 11.168C190.586 10.472 191.126 9.92 191.774 9.512C192.422 9.08 193.19 8.864 194.078 8.864C195.782 8.864 197.102 9.536 198.038 10.88C198.998 12.2 199.478 14.024 199.478 16.352H188.93ZM222.346 26V14.336C222.346 13.904 222.31 13.316 222.238 12.572C222.166 11.804 221.926 11.06 221.518 10.34C221.134 9.596 220.51 8.96 219.646 8.432C218.782 7.88 217.558 7.604 215.974 7.604C215.278 7.58 214.498 7.724 213.634 8.036C212.77 8.324 211.918 8.888 211.078 9.728L210.502 10.304H210.358V8H207.298V26H210.358V14.876C210.358 13.94 210.49 13.136 210.754 12.464C211.018 11.792 211.378 11.228 211.834 10.772C212.29 10.316 212.806 9.98 213.382 9.764C213.982 9.548 214.594 9.44 215.218 9.44C216.226 9.44 217.006 9.644 217.558 10.052C218.11 10.436 218.506 10.892 218.746 11.42C219.01 11.948 219.166 12.476 219.214 13.004C219.262 13.532 219.286 13.916 219.286 14.156V26H222.346ZM244.2 17.792V17.036C244.2 15.428 243.972 14.036 243.516 12.86C243.06 11.684 242.436 10.712 241.644 9.944C240.876 9.176 239.976 8.6 238.944 8.216C237.912 7.832 236.82 7.64 235.668 7.64C234.444 7.64 233.316 7.856 232.284 8.288C231.252 8.696 230.352 9.308 229.584 10.124C228.816 10.916 228.216 11.888 227.784 13.04C227.352 14.168 227.136 15.452 227.136 16.892C227.136 18.092 227.316 19.268 227.676 20.42C228.06 21.548 228.624 22.568 229.368 23.48C230.136 24.368 231.096 25.088 232.248 25.64C233.424 26.168 234.804 26.432 236.388 26.432C237.924 26.432 239.34 26.168 240.636 25.64C241.932 25.088 243.06 24.308 244.02 23.3L242.868 22.148C242.364 22.58 241.884 22.976 241.428 23.336C240.996 23.696 240.552 23.996 240.096 24.236C239.64 24.476 239.16 24.668 238.656 24.812C238.176 24.932 237.636 24.992 237.036 24.992C236.364 24.992 235.644 24.896 234.876 24.704C234.132 24.488 233.436 24.116 232.788 23.588C232.14 23.06 231.6 22.328 231.168 21.392C230.736 20.456 230.52 19.256 230.52 17.792H244.2ZM230.52 16.352C230.52 15.392 230.616 14.468 230.808 13.58C231.024 12.668 231.336 11.864 231.744 11.168C232.176 10.472 232.716 9.92 233.364 9.512C234.012 9.08 234.78 8.864 235.668 8.864C237.372 8.864 238.692 9.536 239.628 10.88C240.588 12.2 241.068 14.024 241.068 16.352H230.52ZM248.888 8V26H251.948V15.128C251.948 14.144 252.056 13.316 252.272 12.644C252.512 11.948 252.812 11.384 253.172 10.952C253.532 10.52 253.928 10.208 254.36 10.016C254.792 9.824 255.212 9.728 255.62 9.728C256.172 9.728 256.676 9.908 257.132 10.268C257.612 10.628 257.96 10.964 258.176 11.276L259.4 9.044C259.184 8.756 258.92 8.516 258.608 8.324C258.32 8.132 258.02 7.988 257.708 7.892C257.42 7.772 257.144 7.7 256.88 7.676C256.64 7.628 256.46 7.604 256.34 7.604C255.332 7.604 254.492 7.88 253.82 8.432C253.148 8.984 252.596 9.8 252.164 10.88H251.948V8H248.888ZM269.258 7.604C271.01 7.604 272.366 7.856 273.326 8.36C274.286 8.84 274.982 9.476 275.414 10.268C275.87 11.06 276.134 11.972 276.206 13.004C276.278 14.036 276.314 15.092 276.314 16.172V26H273.398V24.236C272.702 24.908 271.814 25.448 270.734 25.856C269.654 26.24 268.574 26.432 267.494 26.432C266.462 26.432 265.55 26.252 264.758 25.892C263.966 25.532 263.306 25.064 262.778 24.488C262.25 23.912 261.854 23.264 261.59 22.544C261.326 21.824 261.194 21.092 261.194 20.348C261.194 19.58 261.338 18.812 261.626 18.044C261.914 17.276 262.346 16.592 262.922 15.992C263.498 15.368 264.206 14.864 265.046 14.48C265.886 14.096 266.846 13.904 267.926 13.904C269.006 13.904 270.026 14.12 270.986 14.552C271.97 14.96 272.774 15.548 273.398 16.316V14.768C273.398 12.8 273.098 11.336 272.498 10.376C271.922 9.416 270.854 8.936 269.294 8.936C268.622 8.936 268.034 9.02 267.53 9.188C267.026 9.356 266.57 9.596 266.162 9.908C265.778 10.196 265.418 10.568 265.082 11.024C264.746 11.456 264.41 11.948 264.074 12.5L262.202 10.628C262.538 10.268 262.886 9.908 263.246 9.548C263.63 9.188 264.086 8.864 264.614 8.576C265.166 8.288 265.814 8.06 266.558 7.892C267.302 7.7 268.202 7.604 269.258 7.604ZM273.398 18.872C273.278 18.584 273.098 18.248 272.858 17.864C272.642 17.48 272.354 17.108 271.994 16.748C271.634 16.388 271.202 16.088 270.698 15.848C270.194 15.584 269.594 15.452 268.898 15.452C268.202 15.452 267.566 15.596 266.99 15.884C266.414 16.148 265.922 16.508 265.514 16.964C265.13 17.396 264.83 17.912 264.614 18.512C264.398 19.112 264.29 19.736 264.29 20.384C264.29 21.152 264.422 21.824 264.686 22.4C264.974 22.952 265.334 23.432 265.766 23.84C266.198 24.224 266.678 24.512 267.206 24.704C267.734 24.896 268.238 24.992 268.718 24.992C269.174 24.992 269.63 24.908 270.086 24.74C270.566 24.572 271.01 24.344 271.418 24.056C271.85 23.744 272.234 23.384 272.57 22.976C272.906 22.568 273.182 22.124 273.398 21.644V18.872ZM280.275 9.44V8H283.407V2.456H286.467V8H290.823V9.44H286.467V21.392C286.467 21.68 286.479 22.016 286.503 22.4C286.527 22.76 286.599 23.108 286.719 23.444C286.839 23.756 287.019 24.02 287.259 24.236C287.523 24.452 287.883 24.56 288.339 24.56C288.915 24.56 289.395 24.344 289.779 23.912C290.163 23.48 290.475 23.012 290.715 22.508L292.407 24.236C291.231 25.412 289.899 26 288.411 26C287.787 26 287.175 25.892 286.575 25.676C285.975 25.46 285.435 25.136 284.955 24.704C284.499 24.248 284.127 23.672 283.839 22.976C283.551 22.28 283.407 21.464 283.407 20.528V9.44H280.275ZM313.143 17.036C313.143 18.284 312.927 19.484 312.495 20.636C312.063 21.764 311.439 22.76 310.623 23.624C309.831 24.488 308.859 25.172 307.707 25.676C306.579 26.18 305.307 26.432 303.891 26.432C302.451 26.432 301.143 26.18 299.967 25.676C298.815 25.148 297.831 24.452 297.015 23.588C296.223 22.724 295.599 21.728 295.143 20.6C294.711 19.448 294.495 18.26 294.495 17.036C294.495 15.788 294.711 14.6 295.143 13.472C295.599 12.32 296.223 11.312 297.015 10.448C297.831 9.584 298.815 8.9 299.967 8.396C301.143 7.868 302.451 7.604 303.891 7.604C305.307 7.604 306.579 7.868 307.707 8.396C308.859 8.9 309.831 9.584 310.623 10.448C311.439 11.312 312.063 12.32 312.495 13.472C312.927 14.6 313.143 15.788 313.143 17.036ZM309.723 17.036C309.723 15.356 309.543 14 309.183 12.968C308.823 11.912 308.355 11.096 307.779 10.52C307.203 9.944 306.567 9.56 305.871 9.368C305.175 9.152 304.503 9.044 303.855 9.044C303.207 9.044 302.535 9.152 301.839 9.368C301.143 9.56 300.495 9.944 299.895 10.52C299.319 11.096 298.839 11.912 298.455 12.968C298.095 14 297.915 15.356 297.915 17.036C297.915 18.692 298.095 20.048 298.455 21.104C298.839 22.136 299.319 22.94 299.895 23.516C300.495 24.092 301.143 24.488 301.839 24.704C302.535 24.896 303.207 24.992 303.855 24.992C304.503 24.992 305.175 24.896 305.871 24.704C306.567 24.488 307.203 24.092 307.779 23.516C308.355 22.94 308.823 22.136 309.183 21.104C309.543 20.048 309.723 18.692 309.723 17.036ZM317.829 8V26H320.889V15.128C320.889 14.144 320.997 13.316 321.213 12.644C321.453 11.948 321.753 11.384 322.113 10.952C322.473 10.52 322.869 10.208 323.301 10.016C323.733 9.824 324.153 9.728 324.561 9.728C325.113 9.728 325.617 9.908 326.073 10.268C326.553 10.628 326.901 10.964 327.117 11.276L328.341 9.044C328.125 8.756 327.861 8.516 327.549 8.324C327.261 8.132 326.961 7.988 326.649 7.892C326.361 7.772 326.085 7.7 325.821 7.676C325.581 7.628 325.401 7.604 325.281 7.604C324.273 7.604 323.433 7.88 322.761 8.432C322.089 8.984 321.537 9.8 321.105 10.88H320.889V8H317.829Z" fill="#D6685A"/>
</svg>
